<svg width="25.000000" height="23.000000" viewBox="0 0 25 23" fill="none" xmlns="http://www.w3.org/2000/svg" xmlns:xlink="http://www.w3.org/1999/xlink">
	<desc>
			Created with Pixso.
	</desc>
	<defs/>
	<path id="Vector" d="M23.28 5.03L18.13 5.03L18.13 4.79C18.13 3.36 17.54 1.99 16.48 0.98C15.42 -0.04 13.99 -0.61 12.5 -0.61C11 -0.61 9.57 -0.04 8.51 0.98C7.45 1.99 6.86 3.36 6.86 4.79L6.86 5.03L1.71 5.03C1.26 5.03 0.82 5.2 0.5 5.51C0.18 5.82 0 6.23 0 6.67L0 20.75C0 21.19 0.18 21.61 0.5 21.91C0.82 22.22 1.26 22.39 1.71 22.39L23.28 22.39C23.73 22.39 24.17 22.22 24.49 21.91C24.81 21.61 25 21.19 25 20.75L25 6.67C25 6.23 24.81 5.82 24.49 5.51C24.17 5.2 23.73 5.03 23.28 5.03ZM8.33 4.79C8.33 3.73 8.77 2.72 9.55 1.97C10.33 1.22 11.39 0.8 12.5 0.8C13.6 0.8 14.66 1.22 15.44 1.97C16.22 2.72 16.66 3.73 16.66 4.79L16.66 5.03L8.33 5.03L8.33 4.79ZM23.52 20.75C23.52 20.81 23.5 20.87 23.45 20.92C23.41 20.96 23.34 20.99 23.28 20.99L1.71 20.99C1.65 20.99 1.58 20.96 1.54 20.92C1.49 20.87 1.47 20.81 1.47 20.75L1.47 6.67C1.47 6.61 1.49 6.55 1.54 6.5C1.58 6.46 1.65 6.44 1.71 6.44L6.86 6.44L6.86 8.55C6.86 8.73 6.94 8.91 7.07 9.05C7.21 9.18 7.4 9.25 7.59 9.25C7.79 9.25 7.98 9.18 8.11 9.05C8.25 8.91 8.33 8.73 8.33 8.55L8.33 6.44L16.66 6.44L16.66 8.55C16.66 8.73 16.74 8.91 16.88 9.05C17.01 9.18 17.2 9.25 17.4 9.25C17.59 9.25 17.78 9.18 17.92 9.05C18.05 8.91 18.13 8.73 18.13 8.55L18.13 6.44L23.28 6.44C23.34 6.44 23.41 6.46 23.45 6.5C23.5 6.55 23.52 6.61 23.52 6.67L23.52 20.75Z" fill="#000000" fill-opacity="1.000000" fill-rule="nonzero"/>
</svg>
