<svg width="26.000000" height="23.000000" viewBox="0 0 26 23" fill="none" xmlns="http://www.w3.org/2000/svg" xmlns:xlink="http://www.w3.org/1999/xlink">
	<desc>
			Created with Pixso.
	</desc>
	<defs/>
	<path id="Vector" d="M18.9 -0.4C16.42 -0.4 14.26 0.77 13 2.75C11.73 0.77 9.57 -0.4 7.09 -0.4C5.21 -0.4 3.4 0.38 2.07 1.78C0.75 3.18 0 5.08 0 7.06C0 10.7 2.15 14.48 6.39 18.3C8.33 20.05 10.43 21.59 12.66 22.91C12.76 22.96 12.88 23 13 23C13.11 23 13.23 22.96 13.33 22.91C15.56 21.59 17.66 20.05 19.6 18.3C23.84 14.48 26 10.7 26 7.06C25.99 5.08 25.25 3.18 23.92 1.78C22.59 0.38 20.78 -0.4 18.9 -0.4ZM13 21.39C11.06 20.21 1.41 14 1.41 7.06C1.41 5.48 2.01 3.96 3.08 2.84C4.14 1.72 5.58 1.09 7.09 1.09C9.48 1.09 11.5 2.44 12.34 4.61C12.39 4.74 12.48 4.86 12.6 4.94C12.72 5.03 12.85 5.07 13 5.07C13.14 5.07 13.27 5.03 13.39 4.94C13.51 4.86 13.6 4.74 13.65 4.61C14.49 2.44 16.51 1.09 18.9 1.09C20.41 1.09 21.85 1.72 22.91 2.84C23.98 3.96 24.58 5.48 24.58 7.06C24.58 14 14.93 20.21 13 21.39Z" fill="#000000" fill-opacity="1.000000" fill-rule="nonzero"/>
</svg>
