<svg width="16.000000" height="17.000000" viewBox="0 0 16 17" fill="none" xmlns="http://www.w3.org/2000/svg" xmlns:xlink="http://www.w3.org/1999/xlink">
	<desc>
			Created with Pixso.
	</desc>
	<defs/>
	<path id="Vector" d="M15 16L11.38 12.13M12.82 9.83C13.16 8.96 13.33 8.04 13.33 7.11C13.33 6.17 13.16 5.25 12.82 4.38C12.49 3.52 12 2.74 11.38 2.08C10.76 1.42 10.02 0.89 9.21 0.54C8.4 0.18 7.54 0 6.66 0C5.79 0 4.92 0.18 4.11 0.54C3.3 0.89 2.57 1.42 1.95 2.08C0.7 3.41 0 5.22 0 7.11C0 8.99 0.7 10.8 1.95 12.13C3.2 13.47 4.89 14.22 6.66 14.22C8.43 14.22 10.13 13.47 11.38 12.13C12 11.47 12.49 10.69 12.82 9.83Z" stroke="#D58508" stroke-opacity="1.000000" stroke-width="1.000000" stroke-linejoin="round"/>
</svg>
